<svg width="170" height="47" viewBox="0 0 170 47" fill="none" xmlns="http://www.w3.org/2000/svg">
<g clip-path="url(#clip0_130_6727)">
<g clip-path="url(#clip1_130_6727)">
<path fill-rule="evenodd" clip-rule="evenodd" d="M157.983 14.7125C158.947 14.3509 159.975 14.1893 161.003 14.2372V14.2954C162.496 14.2318 163.976 14.5971 165.268 15.3474C166.904 16.2821 168.014 17.5674 168.598 18.8526C169.299 20.3714 169.65 22.007 169.65 23.8764V25.3951C169.65 27.2061 169.299 28.842 168.598 30.3025C168.014 31.7046 166.962 32.9314 165.677 33.8077C164.275 34.6255 162.639 34.9761 161.003 34.9761C158.783 34.976 156.972 34.3917 155.57 33.1065V40.2338H151.072V14.7045H155.395V16.3401C156.139 15.6278 157.019 15.074 157.983 14.7125ZM160.244 17.9763C159.2 17.9336 158.171 18.2421 157.323 18.8526C156.496 19.5154 155.885 20.4104 155.57 21.4227V27.7318C155.868 28.7687 156.48 29.6874 157.323 30.3607C158.024 30.8281 159.134 31.1788 160.303 31.1788C160.966 31.1871 161.624 31.0501 162.229 30.7777C162.835 30.5053 163.374 30.1038 163.808 29.6014C164.742 28.3746 165.209 26.9139 165.093 25.3951V23.4674C165.034 21.8901 164.625 20.6047 163.749 19.5531C162.931 18.5601 161.763 17.9763 160.244 17.9763Z" fill="#ffffff" />
<path d="M94.5804 29.9522C94.5805 30.4778 94.6391 30.6531 94.8143 31.0619C95.0937 31.667 95.7069 32.0868 96.0923 32.3506C96.1904 32.4178 96.2737 32.4749 96.333 32.5223L93.1787 35.2682C92.3024 34.8008 91.0753 33.8662 90.4911 33.0483C90.0822 32.2305 89.9069 31.4125 89.9069 30.4195V8.97949H94.5804V29.9522Z" fill="#ffffff" />
<path d="M104.57 8.97949V29.9522C104.57 30.4778 104.629 30.653 104.804 31.0619C105.096 31.8213 105.973 32.2887 106.265 32.5223L103.168 35.2682C102.292 34.8008 101.065 33.8661 100.481 33.0483C100.072 32.2305 99.8388 31.4125 99.8387 30.4195V8.97949H104.57Z" fill="#ffffff" />
<path fill-rule="evenodd" clip-rule="evenodd" d="M51.5259 16.1068L51.5841 16.1649C53.0656 14.8688 54.9927 14.1985 56.9588 14.2954C58.6015 14.2519 60.2227 14.6778 61.6323 15.5226L61.8662 15.6977C63.0929 16.5155 64.0273 17.6255 64.6115 18.969C65.2541 20.371 65.6047 22.0654 65.6047 23.8764V25.3951C65.6047 27.2644 65.1956 28.9587 64.6115 30.3607C63.9627 31.8091 62.8892 33.0262 61.5331 33.8505C60.1767 34.6747 58.6015 35.0673 57.017 34.9761C54.6804 34.976 52.7526 34.2751 51.409 32.8732V34.5088H46.9688V8.97949H51.5259V16.1068ZM56.4328 18.0345C55.206 18.0345 53.9791 18.2684 53.2197 18.8526C52.4267 19.5586 51.8412 20.4676 51.5259 21.4814L51.4671 27.7906C51.7819 28.8029 52.3924 29.6979 53.2197 30.3607C54.0375 30.9449 55.0892 31.237 56.1407 31.237C56.7731 31.2619 57.4037 31.1498 57.9885 30.9078C58.5735 30.6658 59.0995 30.2999 59.5295 29.8353L59.7046 29.6601C60.5809 28.5502 60.8729 27.1479 61.0481 25.4538V23.8182C60.8729 22.1241 60.6392 20.7803 59.7046 19.6119C58.8283 18.6188 57.718 18.0929 56.4328 18.0345Z" fill="#ffffff" />
<path fill-rule="evenodd" clip-rule="evenodd" d="M77.6976 14.2954C80.2679 14.2954 82.371 14.8798 83.8898 16.1649L84.1819 16.457C84.8833 17.1749 85.4357 18.025 85.8067 18.9575C86.1776 19.8899 86.3601 20.8866 86.3435 21.8899V22.299C86.3435 23.9347 86.0513 24.9277 85.3503 25.6872C84.7077 26.3882 83.5979 26.6807 82.0791 26.7392H73.6665V27.3816C73.6665 28.7252 74.0753 29.6017 74.7179 30.2443C75.7024 30.9443 76.9025 31.275 78.1067 31.1788C79.0047 31.1929 79.8973 31.0343 80.7355 30.7116C81.5533 30.3611 82.2541 29.8936 82.8966 29.2511L83.2474 28.959L86.1684 31.5879L85.9933 31.8212C85.1053 32.9292 83.9342 33.777 82.6045 34.2749C81.2328 34.7476 79.7908 34.9848 78.34 34.9761H77.9897C75.5361 34.9761 73.0242 34.567 71.0964 32.8144C69.6943 31.5292 69.0517 29.66 69.0517 27.3234V21.5396C69.0517 20.605 69.2268 19.5535 69.5189 18.7356L69.6359 18.5605C70.0448 17.6258 70.6874 16.8079 71.3885 16.2237C72.9658 14.8801 75.1272 14.2954 77.6976 14.2954ZM77.6976 17.9763C76.5293 17.9179 75.4194 18.385 74.6015 19.0859C74.0757 19.6701 73.7249 20.605 73.6665 21.6566V23.0583H80.2677C80.8518 23.0583 81.2024 22.9999 81.4361 22.8832C81.5529 22.7663 81.7282 22.5912 81.7282 22.1238V21.8899C81.7281 20.7216 81.2611 19.5531 80.6186 18.969C80.0344 18.3264 79.0412 17.9763 77.6976 17.9763Z" fill="#ffffff" />
<path fill-rule="evenodd" clip-rule="evenodd" d="M139.388 14.2372C141.51 14.1797 143.583 14.8846 145.23 16.2237C146.749 17.6258 147.567 19.6705 147.567 22.0656V27.2064C147.625 28.0827 147.45 29.2511 147.1 30.1274C146.807 31.062 145.99 32.2304 145.289 32.9314C143.77 34.3334 141.608 34.9761 138.921 34.9761C136.409 34.9176 134.364 34.3919 132.846 33.1653L132.612 32.9314C131.093 31.5877 130.333 29.7183 130.275 27.3816V22.0656C130.275 19.612 131.034 17.6255 132.612 16.2819C134.131 14.8799 136.292 14.2372 138.921 14.2372H139.388ZM139.155 18.0927C136.935 18.0927 134.948 19.2029 134.832 21.8317V27.2064C134.832 29.7184 136.467 31.1788 138.921 31.1788C141.374 31.1204 142.893 29.6597 143.01 27.1476V22.0656C143.01 19.7289 141.608 18.0927 139.155 18.0927Z" fill="#ffffff" />
<path d="M114.151 16.6322C114.677 16.0481 115.144 15.6394 115.903 15.2305C117.123 14.5111 118.519 14.147 119.935 14.179C121.921 14.179 123.382 14.5295 124.842 15.9316C126.419 17.3921 126.887 19.3199 126.77 21.0724V34.5088H122.096V21.5396C122.096 20.4881 122.038 19.6702 121.278 18.9108C120.648 18.3552 119.84 18.0442 119 18.0345C118.45 18.0189 117.903 18.1144 117.391 18.3152C116.879 18.5159 116.413 18.8178 116.02 19.2029C115.144 20.0791 114.501 21.1892 114.151 22.4159V34.5088H109.477V8.97949H114.151V16.6322Z" fill="#ffffff" />
<g clip-path="url(#clip2_130_6727)">
<path d="M33.8013 11.7793L15.3545 12.1773L13.5156 14.5917L27.1657 18.0739C24.691 26.6392 22.3564 43.4645 21.7906 44.8083C23.4636 44.8083 27.4584 43.1106 30.3484 39.9282C32.6421 37.4025 33.3482 33.4181 33.8013 31.4061V11.7793Z" fill="#162B98" style="fill:#162B98;fill:color(display-p3 0.0863 0.1686 0.5961);fill-opacity:1;"/>
<path d="M27.6794 18.2995L3.53567 11.9187C3.24825 15.2528 2.84585 24.3355 3.53567 33.993C4.22549 43.6505 16.2974 44.8577 22.2471 44.2541L27.6794 18.2995Z" fill="#2642CF" style="fill:#2642CF;fill:color(display-p3 0.1490 0.2588 0.8118);fill-opacity:1;"/>
<path fill-rule="evenodd" clip-rule="evenodd" d="M25.8394 7.64584H10.7207L10.4499 4.65726C10.3664 3.73518 11.0201 2.90938 11.9368 2.77911V2.77911C16.1445 2.18117 20.4156 2.18117 24.6234 2.77911V2.77911C25.54 2.90938 26.1938 3.73518 26.1102 4.65726L25.8394 7.64584Z" fill="#1930A9" style="fill:#1930A9;fill:color(display-p3 0.0961 0.1878 0.6639);fill-opacity:1;"/>
<path d="M33.7153 30.4712C33.7151 37.8679 28.0479 44.0316 20.6772 44.6519C19.2815 44.7693 17.8793 44.7839 16.4819 44.6958L15.8833 44.6519C8.51263 44.0316 2.84541 37.8679 2.84521 30.4712V11.9937L18.2075 12.8657L18.2808 12.8696L18.354 12.8657L33.7153 11.9937V30.4712Z" stroke="#ffffff"  stroke-width="2.58683"/>
<path d="M29.9209 8.22656H33.1544L36.388 8.57147" stroke="#ffffff"  stroke-width="2.06946"/>
<path d="M0.172363 8.57147L3.4059 8.22656H6.63944" stroke="#ffffff"  stroke-width="2.06946"/>
<path d="M2.87932 12.0439L27.248 18.1273L22.0744 43.6506" stroke="#ffffff"  stroke-width="2.58683"/>
<path d="M10.1113 2.38354C15.5026 1.29584 21.057 1.29588 26.4482 2.38354C26.598 2.41376 26.7088 2.53637 26.7266 2.68335L26.7275 2.7478L26.3789 8.21069H10.1816L9.83203 2.7478C9.82092 2.57369 9.94039 2.41824 10.1113 2.38354Z" stroke="#ffffff"  stroke-width="2.58683"/>
<circle cx="1.89701" cy="1.89701" r="1.89701" transform="matrix(-0.949498 -0.313773 -0.313773 0.949498 22.1421 23.3794)" fill="#BACEFC" style="fill:#BACEFC;fill:color(display-p3 0.7294 0.8078 0.9882);fill-opacity:1;"/>
<circle cx="1.89701" cy="1.89701" r="1.89701" transform="matrix(-0.949498 -0.313773 -0.313773 0.949498 21.0215 29.0115)" fill="#BACEFC" style="fill:#BACEFC;fill:color(display-p3 0.7294 0.8078 0.9882);fill-opacity:1;"/>
<circle cx="1.89701" cy="1.89701" r="1.89701" transform="matrix(-0.949498 -0.313773 -0.313773 0.949498 19.9785 34.6428)" fill="#BACEFC" style="fill:#BACEFC;fill:color(display-p3 0.7294 0.8078 0.9882);fill-opacity:1;"/>
</g>
</g>
</g>
<defs>
<clipPath id="clip0_130_6727">
<rect width="170" height="46.7354" fill="white" style="fill:white;fill-opacity:1;"/>
</clipPath>
<clipPath id="clip1_130_6727">
<rect width="170" height="46.7354" fill="white" style="fill:white;fill-opacity:1;"/>
</clipPath>
<clipPath id="clip2_130_6727">
<rect width="36.5605" height="46.7354" fill="white" style="fill:white;fill-opacity:1;" transform="translate(0 -0.584229)"/>
</clipPath>
</defs>
</svg>
